<svg width="9" height="16" viewBox="0 0 9 16" fill="none" xmlns="http://www.w3.org/2000/svg">
<path d="M3.30411 0.586666L0.697443 3.16667C0.634957 3.22864 0.585361 3.30238 0.551515 3.38362C0.517669 3.46486 0.500244 3.55199 0.500244 3.64C0.500244 3.72801 0.517669 3.81514 0.551515 3.89638C0.585361 3.97762 0.634957 4.05136 0.697443 4.11333C0.822351 4.2375 0.991319 4.30719 1.16744 4.30719C1.34357 4.30719 1.51253 4.2375 1.63744 4.11333L4.03078 1.74L4.03078 15.3333C4.03078 15.5101 4.10102 15.6797 4.22604 15.8047C4.35106 15.9298 4.52063 16 4.69744 16C4.87426 16 5.04382 15.9298 5.16885 15.8047C5.29387 15.6797 5.36411 15.5101 5.36411 15.3333L5.36411 1.7L7.77078 4.11333C7.83275 4.17582 7.90649 4.22541 7.98773 4.25926C8.06897 4.29311 8.1561 4.31053 8.24411 4.31053C8.33212 4.31053 8.41926 4.29311 8.5005 4.25926C8.58174 4.22541 8.65547 4.17582 8.71744 4.11333C8.77993 4.05136 8.82953 3.97762 8.86337 3.89638C8.89722 3.81514 8.91464 3.72801 8.91464 3.64C8.91464 3.55199 8.89722 3.46485 8.86337 3.38362C8.82953 3.30238 8.77993 3.22864 8.71744 3.16667L6.13078 0.586666C5.75578 0.212131 5.24744 0.00175932 4.71744 0.00175934C4.18744 0.00175937 3.67911 0.212131 3.30411 0.586666Z" fill="white"/>
</svg>
