<svg width="26" height="26" viewBox="0 0 26 26" fill="none" xmlns="http://www.w3.org/2000/svg">
<path d="M13.0001 23.8332C18.9832 23.8332 23.8334 18.9829 23.8334 12.9998C23.8334 7.01675 18.9832 2.1665 13.0001 2.1665C7.017 2.1665 2.16675 7.01675 2.16675 12.9998C2.16675 18.9829 7.017 23.8332 13.0001 23.8332Z" fill="url(#paint0_linear_4632_1588)"/>
<path d="M11.4616 16.8786C11.2449 16.8786 11.0391 16.7919 10.8874 16.6402L7.82156 13.5744C7.5074 13.2602 7.5074 12.7402 7.82156 12.4261C8.13573 12.1119 8.65573 12.1119 8.9699 12.4261L11.4616 14.9177L17.0299 9.34939C17.3441 9.03523 17.8641 9.03523 18.1782 9.34939C18.4924 9.66356 18.4924 10.1836 18.1782 10.4977L12.0357 16.6402C11.8841 16.7919 11.6782 16.8786 11.4616 16.8786Z" fill="white"/>
<defs>
<linearGradient id="paint0_linear_4632_1588" x1="16.8807" y1="-5.05572" x2="2.56411" y2="-0.694625" gradientUnits="userSpaceOnUse">
<stop stop-color="#FFA769"/>
<stop offset="0.695106" stop-color="#DB6919"/>
</linearGradient>
</defs>
</svg>
