<svg width="12" height="12" viewBox="0 0 12 12" fill="none" xmlns="http://www.w3.org/2000/svg">
<path d="M5.99865 3.33165C4.52218 3.33165 3.3306 4.52324 3.3306 5.99971C3.3306 7.47618 4.52218 8.66776 5.99865 8.66776C7.47512 8.66776 8.6667 7.47618 8.6667 5.99971C8.6667 4.52324 7.47512 3.33165 5.99865 3.33165ZM5.99865 7.73375C5.04382 7.73375 4.26461 6.95454 4.26461 5.99971C4.26461 5.04488 5.04382 4.26567 5.99865 4.26567C6.95348 4.26567 7.73269 5.04488 7.73269 5.99971C7.73269 6.95454 6.95348 7.73375 5.99865 7.73375ZM8.77598 2.60057C8.43125 2.60057 8.15287 2.87896 8.15287 3.22368C8.15287 3.56841 8.43125 3.84679 8.77598 3.84679C9.1207 3.84679 9.39909 3.56971 9.39909 3.22368C9.39919 3.14183 9.38314 3.06075 9.35186 2.98511C9.32059 2.90946 9.27469 2.84073 9.21681 2.78285C9.15893 2.72497 9.0902 2.67907 9.01455 2.6478C8.93891 2.61652 8.85783 2.60047 8.77598 2.60057ZM11.1995 5.99971C11.1995 5.28164 11.206 4.57007 11.1656 3.8533C11.1253 3.02075 10.9354 2.28187 10.3266 1.67307C9.71649 1.06296 8.97891 0.87434 8.14636 0.834014C7.42829 0.793687 6.71672 0.800192 5.99995 0.800192C5.28188 0.800192 4.57031 0.793687 3.85354 0.834014C3.02099 0.87434 2.28211 1.06427 1.67331 1.67307C1.06321 2.28317 0.874584 3.02075 0.834258 3.8533C0.793931 4.57137 0.800436 5.28294 0.800436 5.99971C0.800436 6.71648 0.793931 7.42935 0.834258 8.14612C0.874584 8.97867 1.06451 9.71755 1.67331 10.3264C2.28341 10.9365 3.02099 11.1251 3.85354 11.1654C4.57161 11.2057 5.28318 11.1992 5.99995 11.1992C6.71802 11.1992 7.42959 11.2057 8.14636 11.1654C8.97891 11.1251 9.7178 10.9352 10.3266 10.3264C10.9367 9.71625 11.1253 8.97867 11.1656 8.14612C11.2073 7.42935 11.1995 6.71778 11.1995 5.99971ZM10.0547 9.06712C9.95975 9.30388 9.84528 9.48079 9.66186 9.66291C9.47844 9.84633 9.30282 9.96081 9.06607 10.0558C8.38182 10.3277 6.75705 10.2665 5.99865 10.2665C5.24025 10.2665 3.61418 10.3277 2.92993 10.0571C2.69318 9.96211 2.51626 9.84764 2.33414 9.66422C2.15072 9.48079 2.03625 9.30518 1.94129 9.06842C1.67071 8.38287 1.73185 6.75811 1.73185 5.99971C1.73185 5.24131 1.67071 3.61524 1.94129 2.93099C2.03625 2.69424 2.15072 2.51732 2.33414 2.3352C2.51756 2.15308 2.69318 2.0373 2.92993 1.94234C3.61418 1.67176 5.24025 1.7329 5.99865 1.7329C6.75705 1.7329 8.38312 1.67176 9.06737 1.94234C9.30412 2.0373 9.48104 2.15178 9.66316 2.3352C9.84658 2.51862 9.96105 2.69424 10.056 2.93099C10.3266 3.61524 10.2655 5.24131 10.2655 5.99971C10.2655 6.75811 10.3266 8.38287 10.0547 9.06712Z" fill="white"/>
</svg>
