<svg width="102" height="34" viewBox="0 0 102 34" fill="none" xmlns="http://www.w3.org/2000/svg">
<path d="M36.1904 20.502V5.46832H46.3721V8.03087H39.1362V11.9061H45.1554V14.2776H39.1362V20.5028H36.1904V20.502Z" fill="white"/>
<path d="M54.3771 20.6085C53.3098 20.6085 52.3343 20.3939 51.453 19.9621C50.5701 19.5322 49.8124 18.9607 49.1792 18.2479C48.546 17.5351 48.0589 16.7199 47.7178 15.8019C47.3759 14.8847 47.2053 13.9461 47.2053 12.9856C47.2053 11.9838 47.3861 11.0237 47.7496 10.1061C48.1127 9.18811 48.617 8.37738 49.2653 7.67066C49.912 6.96476 50.677 6.40376 51.5603 5.98685C52.4412 5.57076 53.402 5.3623 54.4416 5.3623C55.5081 5.3623 56.4837 5.58492 57.3657 6.02976C58.2478 6.47459 59.0022 7.05664 59.6285 7.7763C60.2548 8.49597 60.7387 9.31561 61.0802 10.2324C61.4229 11.1504 61.5934 12.0822 61.5934 13.0281C61.5934 14.0311 61.4119 14.9863 61.0484 15.8979C60.6848 16.8078 60.1846 17.6124 59.5436 18.3106C58.9031 19.0097 58.1418 19.5682 57.2588 19.9847C56.3759 20.4012 55.4155 20.6085 54.3771 20.6085ZM50.1715 12.9856C50.1715 13.6348 50.2678 14.2634 50.4603 14.8702C50.6521 15.4773 50.9291 16.0144 51.2927 16.4799C51.6558 16.9454 52.1001 17.3194 52.6268 17.6015C53.154 17.8836 53.7509 18.0245 54.42 18.0245C55.103 18.0245 55.704 17.8804 56.2242 17.591C56.7427 17.3024 57.1817 16.9174 57.5371 16.437C57.8921 15.9569 58.163 15.417 58.3478 14.8171C58.5326 14.2177 58.6256 13.6077 58.6256 12.9856C58.6256 12.3364 58.5261 11.7086 58.3274 11.101C58.1275 10.4943 57.8468 9.95757 57.4849 9.49209C57.1209 9.0258 56.6803 8.65545 56.1605 8.3798C55.6419 8.10497 55.0544 7.96735 54.4008 7.96735C53.7178 7.96735 53.1168 8.11185 52.5966 8.40126C52.0772 8.69107 51.6362 9.07195 51.2731 9.54511C50.9108 10.0179 50.6358 10.5546 50.4514 11.154C50.2649 11.7543 50.1715 12.3647 50.1715 12.9856Z" fill="white"/>
<path d="M63.8757 20.502V5.46832H66.8215V17.9407H74.5482V20.502H63.8757Z" fill="white"/>
<path d="M86.9709 17.9407V20.502H76.4465V5.46832H86.7779V8.03087H79.3915V11.6519H85.775V14.0234H79.3915V17.9407H86.9709Z" fill="white"/>
<path d="M90.8768 5.46832L94.6553 11.0589L98.4117 5.46832H101.592L96.191 13.0916L101.421 20.5032H98.24L94.6545 15.1247L91.0469 20.5032H87.8449L93.0747 13.0916L87.6736 5.46873L90.8768 5.46832Z" fill="white"/>
<path d="M38.8571 25.3167H37.68V28.3407H37.1206V25.3167H35.9382V24.8265H38.8571V25.3167Z" fill="white"/>
<path d="M42.4405 24.8265V28.3407H41.8762V26.7929H40.09V28.3407H39.531V24.8265H40.09V26.2962H41.8762V24.8265H42.4405Z" fill="white"/>
<path d="M45.8575 27.8513V28.3407H43.4275V24.8265H45.8122V25.3167H43.9869V26.3169H45.5679V26.7779H43.9869V27.8513H45.8575Z" fill="white"/>
<path d="M48.0591 28.3407V24.8265H50.419V25.3167H48.6172V26.3658H50.1244V26.8269H48.6172V28.3407H48.0591Z" fill="white"/>
<path d="M52.594 27.8663C52.7801 27.8663 52.9355 27.8291 53.0583 27.757C53.1811 27.6842 53.2807 27.5886 53.3554 27.4717C53.4308 27.3555 53.4831 27.2211 53.5153 27.0718C53.5471 26.9216 53.563 26.7666 53.563 26.6083V24.8265H54.1265V26.6083C54.1265 26.8495 54.0987 27.0746 54.042 27.2891C53.9857 27.5024 53.8956 27.6882 53.7728 27.8481C53.6495 28.0084 53.4908 28.1351 53.2962 28.2278C53.1012 28.3204 52.8674 28.367 52.5949 28.367C52.3121 28.367 52.0738 28.3172 51.8784 28.2209C51.6838 28.1237 51.5271 27.9926 51.4084 27.8295C51.2872 27.6659 51.2011 27.4785 51.1481 27.2673C51.0938 27.0556 51.0681 26.8366 51.0681 26.6087V24.8278H51.6275V26.6087C51.6275 26.7698 51.6426 26.9256 51.6744 27.0758C51.7062 27.226 51.7589 27.3612 51.8339 27.4773C51.9094 27.5943 52.0094 27.6882 52.133 27.7586C52.2574 27.8299 52.4113 27.8663 52.594 27.8663Z" fill="white"/>
<path d="M57.6541 25.3167H56.4762V28.3407H55.9168V25.3167H54.7349V24.8265H57.6541V25.3167Z" fill="white"/>
<path d="M59.7994 27.8663C59.9858 27.8663 60.14 27.8291 60.2637 27.757C60.3865 27.6842 60.486 27.5886 60.5611 27.4717C60.6362 27.3555 60.6888 27.2211 60.721 27.0718C60.7516 26.9216 60.768 26.7666 60.768 26.6083V24.8265H61.3318V26.6083C61.3318 26.8495 61.3045 27.0746 61.2465 27.2891C61.1894 27.5024 61.1013 27.6882 60.9777 27.8481C60.854 28.0084 60.6957 28.1351 60.5007 28.2278C60.3061 28.3204 60.0723 28.367 59.7998 28.367C59.517 28.367 59.2788 28.3172 59.0837 28.2209C58.8887 28.1237 58.7312 27.9926 58.6121 27.8295C58.4925 27.6659 58.4056 27.4785 58.3526 27.2673C58.2995 27.0556 58.2734 26.8366 58.2734 26.6087V24.8278H58.8316V26.6087C58.8316 26.7698 58.8471 26.9256 58.8789 27.0758C58.9103 27.226 58.9638 27.3612 59.0389 27.4773C59.1139 27.5943 59.2135 27.6882 59.3379 27.7586C59.4628 27.8299 59.6174 27.8663 59.7994 27.8663Z" fill="white"/>
<path d="M62.26 28.3407V24.8265H63.8002C63.9605 24.8265 64.1078 24.8597 64.2425 24.9253C64.3771 24.9917 64.493 25.0771 64.5897 25.1848C64.6864 25.2932 64.7615 25.4147 64.8173 25.5507C64.8724 25.6891 64.8989 25.8283 64.8989 25.9696C64.8989 26.0882 64.8822 26.2027 64.8492 26.3112C64.8157 26.4205 64.7704 26.5209 64.7096 26.6132C64.6501 26.7058 64.577 26.7864 64.4901 26.8536C64.4036 26.9216 64.309 26.9714 64.2053 27.0038L65.0487 28.3415H64.4147L63.637 27.1187H62.8177V28.3415H62.26V28.3407ZM62.8177 26.6281H63.7961C63.8749 26.6281 63.9479 26.6115 64.0124 26.5759C64.0772 26.5411 64.1331 26.4929 64.1792 26.4322C64.2262 26.3723 64.2621 26.3019 64.2898 26.2218C64.3159 26.1436 64.329 26.059 64.329 25.9696C64.329 25.8801 64.3139 25.7963 64.2821 25.7174C64.251 25.6377 64.2094 25.5689 64.1576 25.5094C64.1058 25.4499 64.0462 25.4017 63.9781 25.3669C63.9104 25.3329 63.839 25.3163 63.7655 25.3163H62.8173V26.6281H62.8177Z" fill="white"/>
<path d="M68.2172 27.8513V28.3407H65.7871V24.8265H68.1727V25.3167H66.3457V26.3169H67.9279V26.7779H66.3457V27.8513H68.2172Z" fill="white"/>
<path d="M71.874 28.3658C71.6248 28.3658 71.3983 28.3144 71.1935 28.214C70.9887 28.1144 70.812 27.98 70.6639 27.8141C70.517 27.6473 70.402 27.4567 70.322 27.2426C70.2429 27.0276 70.2029 26.8095 70.2029 26.584C70.2029 26.3501 70.2453 26.1254 70.3306 25.9105C70.4159 25.6964 70.5321 25.5057 70.6819 25.3406C70.8312 25.1771 71.0095 25.0451 71.2168 24.9476C71.4216 24.8496 71.6472 24.8022 71.8895 24.8022C72.1392 24.8022 72.3653 24.8537 72.5713 24.9581C72.7749 25.0609 72.9516 25.1977 73.0968 25.3669C73.2421 25.5353 73.3571 25.7251 73.4359 25.9392C73.5158 26.1509 73.5562 26.3687 73.5562 26.5885C73.5562 26.8224 73.5138 27.0479 73.4285 27.262C73.3441 27.4769 73.2262 27.6659 73.0768 27.8295C72.9275 27.9914 72.75 28.1229 72.5456 28.2201C72.3404 28.316 72.1172 28.3658 71.874 28.3658ZM70.772 26.584C70.772 26.7492 70.7977 26.909 70.8492 27.0641C70.901 27.2199 70.9744 27.3559 71.0711 27.4761C71.167 27.5939 71.2837 27.6886 71.4195 27.759C71.5558 27.8311 71.7088 27.8667 71.8794 27.8667C72.0523 27.8667 72.2078 27.8295 72.3461 27.7562C72.4836 27.6809 72.5999 27.5838 72.6945 27.4607C72.7892 27.3381 72.8618 27.2021 72.912 27.0503C72.9622 26.8977 72.9871 26.7435 72.9871 26.5848C72.9871 26.4172 72.9605 26.2557 72.9067 26.1019C72.8541 25.9493 72.779 25.815 72.6827 25.6972C72.5864 25.5786 72.4701 25.4855 72.3339 25.4151C72.1976 25.3438 72.0454 25.3074 71.8798 25.3074C71.7068 25.3074 71.5513 25.3446 71.4134 25.4187C71.2743 25.494 71.1584 25.5895 71.0638 25.7081C70.9695 25.8275 70.8973 25.9643 70.8471 26.1177C70.7969 26.2683 70.772 26.4249 70.772 26.584Z" fill="white"/>
<path d="M74.3293 28.3407V24.8265H76.6896V25.3167H74.8879V26.3658H76.395V26.8269H74.8879V28.3407H74.3293Z" fill="white"/>
<path d="M81.1601 25.3167H79.9818V28.3407H79.4245V25.3167H78.2417V24.8265H81.1601V25.3167Z" fill="white"/>
<path d="M81.8342 28.3407V24.8265H83.3757C83.5356 24.8265 83.6825 24.8597 83.8175 24.9253C83.9526 24.9917 84.0676 25.0771 84.1647 25.1848C84.2606 25.2932 84.3365 25.4147 84.3916 25.5507C84.4467 25.6891 84.4736 25.8283 84.4736 25.9696C84.4736 26.0882 84.4569 26.2027 84.4242 26.3112C84.3908 26.4205 84.3447 26.5209 84.2847 26.6132C84.2243 26.7058 84.1517 26.7864 84.0648 26.8536C83.9775 26.9216 83.8832 26.9714 83.7804 27.0038L84.6233 28.3415H83.9901L83.2116 27.1187H82.3928V28.3415H81.8342V28.3407ZM82.3928 26.6281H83.3704C83.4499 26.6281 83.5225 26.6115 83.587 26.5759C83.6519 26.5411 83.7082 26.4929 83.7547 26.4322C83.8 26.3723 83.8371 26.3019 83.8644 26.2218C83.8906 26.1436 83.9044 26.059 83.9044 25.9696C83.9044 25.8801 83.8885 25.7963 83.8575 25.7174C83.8257 25.6377 83.7849 25.5689 83.7327 25.5094C83.6804 25.4499 83.6205 25.4017 83.5527 25.3669C83.4846 25.3329 83.4136 25.3163 83.3402 25.3163H82.3928V26.6281Z" fill="white"/>
<path d="M84.9734 28.3407L86.3998 24.8265H86.8588L88.2802 28.3407H87.6866L87.3076 27.3858H85.9395L85.5707 28.3407H84.9734ZM86.6291 25.4446L86.0411 26.9742H87.1982L86.6291 25.4446Z" fill="white"/>
<path d="M88.8994 28.3407V24.8265H90.1569C90.4429 24.8265 90.693 24.8715 90.9084 24.9642C91.1226 25.0568 91.3017 25.1831 91.4461 25.3406C91.5914 25.5005 91.6995 25.6854 91.7734 25.8988C91.8472 26.1104 91.8839 26.3383 91.8839 26.5788C91.8839 26.8459 91.8431 27.0888 91.7615 27.3045C91.6799 27.521 91.5645 27.7052 91.4135 27.8586C91.265 28.0128 91.083 28.1306 90.87 28.2152C90.6575 28.299 90.4196 28.3419 90.1569 28.3419H88.8994V28.3407ZM91.3144 26.5783C91.3144 26.3934 91.2891 26.2242 91.2377 26.0683C91.1858 25.9133 91.11 25.7814 91.0096 25.6709C90.91 25.5604 90.7893 25.4725 90.6461 25.4106C90.5024 25.3475 90.3384 25.3167 90.156 25.3167H89.458V27.8513H90.156C90.3425 27.8513 90.5082 27.8198 90.653 27.755C90.7978 27.6902 90.9194 27.6008 91.0177 27.4878C91.1153 27.3733 91.1899 27.2389 91.2401 27.0847C91.2899 26.9285 91.3144 26.7601 91.3144 26.5783Z" fill="white"/>
<path d="M92.6719 28.3407V24.8306H93.2312V28.3407H92.6719Z" fill="white"/>
<path d="M94.7771 25.8659V28.3402H94.2185V24.8261H94.6567L96.6832 27.3599V24.8302H97.2471V28.3402H96.7828L94.7771 25.8659Z" fill="white"/>
<path d="M100.68 27.9047C100.391 28.2115 100.054 28.3666 99.6675 28.3666C99.4378 28.3666 99.2228 28.3152 99.0217 28.2148C98.8209 28.1144 98.6451 27.9808 98.4982 27.8141C98.3501 27.6473 98.2338 27.4558 98.1489 27.2401C98.0645 27.0236 98.0212 26.8005 98.0212 26.569C98.0212 26.331 98.0641 26.1056 98.1489 25.8898C98.2338 25.6773 98.3501 25.4883 98.4982 25.3268C98.6451 25.1649 98.8209 25.0358 99.0249 24.9427C99.2273 24.8496 99.4476 24.8018 99.6879 24.8018C100.02 24.8018 100.301 24.8722 100.526 25.0115C100.753 25.1523 100.924 25.3381 101.04 25.5697L100.612 25.8765C100.515 25.685 100.384 25.5421 100.22 25.4458C100.055 25.3511 99.8723 25.3025 99.6728 25.3025C99.51 25.3025 99.3619 25.3381 99.2289 25.4094C99.0959 25.4806 98.9821 25.5737 98.887 25.6907C98.7932 25.8077 98.7197 25.9445 98.6679 26.1003C98.6161 26.2545 98.5904 26.4164 98.5904 26.584C98.5904 26.7617 98.6186 26.9297 98.6753 27.0843C98.732 27.2385 98.8111 27.3745 98.9119 27.4907C99.0139 27.6044 99.1318 27.6971 99.2689 27.7643C99.4052 27.8323 99.5533 27.8663 99.7132 27.8663C100.073 27.8663 100.395 27.693 100.681 27.347V26.9762H99.938V26.5633H101.151V28.3415H100.682V27.9051H100.68V27.9047Z" fill="white"/>
<path d="M14.9667 32.8505C14.7378 32.8505 14.4698 32.4397 14.4698 32.4397L13.5595 30.6081L2.21794 23.6571L2.21345 23.6539C2.13593 23.5948 2.0478 23.528 2.01679 23.4037C1.98048 23.2588 2.02699 23.0613 2.15918 22.8007L4.65043 16.864L4.41787 1.41789C4.404 1.34666 4.42318 1.27299 4.4701 1.21713C4.51824 1.16006 4.58882 1.12727 4.66349 1.12646C4.71612 1.12646 4.76712 1.14387 4.80914 1.17504L14.238 10.5882H20.3911L29.8208 1.17504C29.8632 1.14387 29.9142 1.12687 29.9668 1.12646C30.0415 1.12687 30.1117 1.16006 30.1602 1.21673C30.2071 1.27258 30.2267 1.34585 30.212 1.41749L29.9774 16.9907L32.5217 22.8007C32.5735 22.9128 32.6119 23.0302 32.6347 23.1516C32.6539 23.2455 32.6531 23.3426 32.6323 23.4365C32.6107 23.5308 32.5487 23.6114 32.463 23.6571L21.0871 30.6563L20.225 32.4397C20.225 32.4397 19.9158 32.8505 19.6869 32.8505H14.9667ZM17.0275 14.072C17.0247 14.0736 12.4714 15.8412 10.5142 16.6009L10.4028 16.6434C10.3506 16.6738 10.3143 16.726 10.3037 16.7847C10.2923 16.8458 10.2935 16.9081 10.3065 16.9697C10.322 17.0482 10.3469 17.1247 10.38 17.1975L16.305 30.3349H18.369L24.2948 17.1975C24.3156 17.1518 24.3324 17.1048 24.345 17.0563C24.3715 16.9709 24.3727 16.879 24.3474 16.7936C24.3266 16.7377 24.2826 16.6944 24.2271 16.6738L17.5853 14.072C17.5032 14.0307 17.4127 14.0092 17.3205 14.0104C17.2197 14.0108 17.1197 14.0319 17.0275 14.072ZM26.7461 17.8994L22.8954 26.1654C22.895 26.1675 22.8264 26.3698 22.8844 26.45C22.9011 26.4722 22.9272 26.4844 22.9545 26.4828C23.0149 26.4767 23.0729 26.4561 23.123 26.4229C23.5119 26.1998 29.0496 22.7602 29.1059 22.7262C29.2035 22.6618 29.2867 22.5788 29.352 22.4821C29.4107 22.3951 29.447 22.2951 29.4585 22.1915C29.4691 22.0563 29.4401 21.9211 29.3752 21.8013C29.2398 21.5362 29.066 21.0917 28.8644 20.5777C28.6196 19.9523 28.3422 19.2436 28.0398 18.6081C27.7261 17.9492 27.3536 17.8107 27.0966 17.8107C26.9733 17.8099 26.853 17.8403 26.7461 17.8994ZM6.60271 18.6081C6.30038 19.2428 6.02294 19.9523 5.77814 20.5769C5.57659 21.0917 5.40278 21.5362 5.26774 21.8013C5.20286 21.9203 5.1743 22.0563 5.1845 22.1907C5.19552 22.2951 5.23224 22.3943 5.29099 22.4817C5.35586 22.5784 5.4395 22.6606 5.53702 22.7254C5.59291 22.7602 11.1311 26.199 11.5199 26.4221C11.5705 26.4557 11.628 26.4763 11.6884 26.4828C11.7162 26.4836 11.7427 26.4714 11.759 26.45C11.817 26.369 11.7484 26.1675 11.748 26.1654L7.8973 17.8994C7.78999 17.8399 7.66922 17.8091 7.54682 17.8099C7.28897 17.8107 6.91687 17.9492 6.60271 18.6081ZM27.2797 8.15637L21.999 12.9237C21.9292 12.9827 21.9207 13.0864 21.9798 13.1556C21.9966 13.175 22.0178 13.19 22.0414 13.2005L27.3112 15.2442C27.3952 15.2794 27.4927 15.2409 27.5286 15.1571C27.5384 15.1332 27.5429 15.1077 27.5413 15.0822L27.5519 8.27092C27.5466 8.18389 27.4735 8.11589 27.3858 8.11711C27.3467 8.11751 27.3091 8.13127 27.2797 8.15637ZM7.07844 8.27092L7.08905 15.0822C7.08578 15.1272 7.1017 15.1717 7.1327 15.2049C7.16412 15.2385 7.20818 15.2575 7.25388 15.2575C7.27632 15.2575 7.29794 15.2531 7.31875 15.2442L12.5885 13.2009C12.6729 13.1649 12.7121 13.0686 12.6762 12.9852C12.666 12.9613 12.6505 12.9407 12.6309 12.9241L7.35058 8.15637C7.3212 8.13087 7.28326 8.11751 7.2445 8.11751C7.15678 8.1167 7.08334 8.1843 7.07844 8.27092Z" fill="url(#paint0_linear_4636_199)"/>
<defs>
<linearGradient id="paint0_linear_4636_199" x1="32.0744" y1="17.2031" x2="1.8771" y2="17.4073" gradientUnits="userSpaceOnUse">
<stop stop-color="#F08D2F"/>
<stop offset="1" stop-color="#EA523A"/>
</linearGradient>
</defs>
</svg>
