<svg width="16" height="16" viewBox="0 0 16 16" fill="none" xmlns="http://www.w3.org/2000/svg">
<path d="M10.26 3.47334L11.2 5.35334C11.3266 5.61334 11.6666 5.86001 11.9533 5.91334L13.6533 6.19334C14.74 6.37334 14.9933 7.16001 14.2133 7.94668L12.8866 9.27334C12.6666 9.49334 12.54 9.92668 12.6133 10.24L12.9933 11.88C13.2933 13.1733 12.6 13.68 11.46 13L9.86663 12.0533C9.57996 11.88 9.09997 11.88 8.8133 12.0533L7.21996 13C6.07996 13.6733 5.38663 13.1733 5.68663 11.88L6.06664 10.24C6.13997 9.93334 6.0133 9.50001 5.7933 9.27334L4.46664 7.94668C3.68664 7.16668 3.93997 6.38001 5.02664 6.19334L6.72663 5.91334C7.0133 5.86668 7.3533 5.61334 7.47997 5.35334L8.41997 3.47334C8.91997 2.45334 9.74664 2.45334 10.26 3.47334Z" fill="#FF8B30"/>
<path opacity="0.4" d="M5.33325 3.83334H1.33325C1.05992 3.83334 0.833252 3.60668 0.833252 3.33334C0.833252 3.06001 1.05992 2.83334 1.33325 2.83334H5.33325C5.60659 2.83334 5.83325 3.06001 5.83325 3.33334C5.83325 3.60668 5.60659 3.83334 5.33325 3.83334Z" fill="#FF8B30"/>
<path opacity="0.4" d="M3.33325 13.1667H1.33325C1.05992 13.1667 0.833252 12.94 0.833252 12.6667C0.833252 12.3933 1.05992 12.1667 1.33325 12.1667H3.33325C3.60659 12.1667 3.83325 12.3933 3.83325 12.6667C3.83325 12.94 3.60659 13.1667 3.33325 13.1667Z" fill="#FF8B30"/>
<path opacity="0.4" d="M1.99992 8.5H1.33325C1.05992 8.5 0.833252 8.27333 0.833252 8C0.833252 7.72667 1.05992 7.5 1.33325 7.5H1.99992C2.27325 7.5 2.49992 7.72667 2.49992 8C2.49992 8.27333 2.27325 8.5 1.99992 8.5Z" fill="#FF8B30"/>
</svg>
