<svg width="11" height="14" viewBox="0 0 11 14" fill="none" xmlns="http://www.w3.org/2000/svg">
<path d="M5.64636 0.933594C3.14098 0.933594 0.665283 2.5963 0.665283 5.28735C0.665283 6.99868 1.6322 7.97102 2.21821 7.97102C2.46003 7.97102 2.59911 7.3001 2.59911 7.11069C2.59911 6.88472 2.02053 6.40321 2.02053 5.46238C2.02053 3.50797 3.51485 2.12219 5.44868 2.12219C7.11139 2.12219 8.342 3.06302 8.342 4.79146C8.342 6.08234 7.82202 8.50347 6.13705 8.50347C5.52916 8.50347 5.00878 8.06592 5.00878 7.43895C5.00878 6.5199 5.65339 5.6304 5.65339 4.68217C5.65339 3.07314 3.36054 3.36484 3.36054 5.30952C3.36054 5.71791 3.41171 6.16985 3.59494 6.54206C3.25779 7.98619 2.56942 10.1374 2.56942 11.6251C2.56942 12.0844 2.63545 12.5367 2.6792 12.9961C2.76202 13.0887 2.72061 13.0789 2.84758 13.0326C4.0782 11.3552 4.03445 11.0273 4.59115 8.83213C4.89158 9.40114 5.66785 9.70723 6.28316 9.70723C8.87605 9.70723 10.041 7.1912 10.041 4.92331C10.041 2.50957 7.94586 0.934372 5.64597 0.934372L5.64636 0.933594Z" fill="white"/>
</svg>
