<svg width="12" height="10" viewBox="0 0 12 10" fill="none" xmlns="http://www.w3.org/2000/svg">
<path d="M11.2 1.67014C10.8176 1.83512 10.4014 1.95385 9.9727 2.0001C10.4178 1.73568 10.7511 1.31793 10.9101 0.82524C10.4924 1.0737 10.0349 1.24792 9.55775 1.34018C9.35833 1.12699 9.11714 0.957149 8.84921 0.841247C8.58128 0.725346 8.29236 0.665864 8.00043 0.666509C6.81932 0.666509 5.86944 1.62389 5.86944 2.79875C5.86944 2.96373 5.88944 3.12871 5.92193 3.28744C4.1534 3.19496 2.57609 2.35006 1.52746 1.05646C1.33639 1.38282 1.23626 1.75441 1.2375 2.13258C1.2375 2.87249 1.6137 3.52492 2.18738 3.90862C1.8493 3.89531 1.51914 3.80238 1.22375 3.6374V3.66365C1.22375 4.69977 1.95616 5.55842 2.93229 5.7559C2.74901 5.80351 2.56047 5.82786 2.37111 5.82839C2.23238 5.82839 2.10114 5.81464 1.96866 5.79589C2.23863 6.64079 3.02478 7.25447 3.96092 7.27447C3.22851 7.84815 2.31112 8.18561 1.31499 8.18561C1.13626 8.18561 0.971278 8.17936 0.800049 8.15936C1.74494 8.76554 2.86605 9.11549 4.07341 9.11549C7.99293 9.11549 10.1377 5.86838 10.1377 3.04997C10.1377 2.95748 10.1377 2.865 10.1314 2.77251C10.5464 2.46879 10.9101 2.09259 11.2 1.67014Z" fill="white"/>
</svg>
